<svg width="105" height="87" viewBox="0 0 105 87" fill="none" xmlns="http://www.w3.org/2000/svg">
<path d="M25.3822 6.18663C28.0937 2.30948 32.527 0 37.2582 0H70.1501C75.1876 0 79.8637 2.61593 82.4997 6.90868L99.7914 35.0681C102.593 39.6304 102.651 45.3657 99.9421 49.9838L82.4571 79.7928C79.8555 84.228 75.0986 86.9526 69.9567 86.9526H37.4559C32.6153 86.9526 28.0943 84.5358 25.4054 80.5107L5.50293 50.7182C2.18488 45.7513 2.25417 39.2574 5.67745 34.3625L25.3822 6.18663Z" fill="black"/>
<rect x="39.1287" y="23.1875" width="6.84752" height="39.1287" fill="white"/>
<rect x="46.9543" y="23.1875" width="18.5861" height="5.8693" fill="white"/>
<path d="M43.0415 39.8175L55.666 40.4744C59.0228 40.6491 61.8403 37.9744 61.8403 34.6131V29.0571H65.5405L65.2677 40.9083C65.2066 43.565 63.0353 45.6868 60.3779 45.6868H43.0415V39.8175Z" fill="white"/>
</svg>
